<svg xmlns="http://www.w3.org/2000/svg" viewBox="0 0 1000 1000">
  <rect width="1000" height="1000" fill="#fffdf7"/>
  <g fill="none" stroke="#273451" stroke-width="24" stroke-linecap="round" stroke-linejoin="round">
    <path d="M260 665c-38-86-50-177-14-217l-32-116 86 50c73-44 162-54 235-10l91-56-18 124c50 51 72 145 44 226-21 61-70 101-110 112l-57 34-63-12-66 24-44-56c-22-23-38-57-52-103z"/>
    <path d="M610 735c55-2 105-28 132-10 37-23 78-59 88-75 18-28-5-65-25-75-27 30-58 38-90 37"/>
    <path d="M312 768c3 38 2 75 40 147 18-4 34-17 46-37"/>
    <path d="M542 778c20 42 22 98 48 80 0 0-4 40-20 62-28-5-44-18-50-28"/>
    <path d="M352 510c26-25 47-23 68 0m82 0c26-25 47-23 68 0"/>
    <path d="M430 610c28 20 53 20 80 0m-40 22v32"/>
    <path d="M325 620l-95-30m95 55l-85 20m370-45l120-30m-120 55l110 20"/>
  </g>
</svg>
