<svg xmlns="http://www.w3.org/2000/svg" viewBox="0 0 1000 1000">
  <rect width="1000" height="1000" fill="#fffdf7"/>
  <g fill="none" stroke="#273451" stroke-width="24" stroke-linecap="round" stroke-linejoin="round">
    <path d="M138 705c-38-59-40-122-10-157 20-24 42-35 58-38l44 38 40-70 66 10 46-86 70 28 53-98 75 22 76-36 76 48c54 50 58 128 28 154-32 28-78 38-124 32l-36 68 50 115-58 25-64-100-80 10-28 110h-70l-18-110-77-20-47 80-58 18-12-43z"/>
    <path d="M186 510c-14-30-22-48-26-58 29-27 61-37 110 26"/>
    <path d="M656 318c10-31 34-48 62 4"/>
    <path d="M704 455c20-31 45-31 44 0-13 29-31 31-44 0z"/>
    <path d="M560 440c24 20 43 20 60 0m-80 60c20 15 57 17 80 10"/>
    <path d="M448 670c22 38 35 73 42 72m110-122c28 15 56 34 88 52"/>
    <path d="M336 488c9 42 25 85 82 119"/>
    <path d="M505 332c15-24 34-43 55 13m-178 57c11-26 30-43 48 0"/>
  </g>
</svg>
