<svg xmlns="http://www.w3.org/2000/svg" viewBox="0 0 1000 1000">
  <rect width="1000" height="1000" fill="#fffdf7"/>
  <g fill="none" stroke="#273451" stroke-width="24" stroke-linecap="round" stroke-linejoin="round">
    <path d="M130 520c88-128 230-176 370-148 68 14 125 47 192 118 52-70 109-131 143-175-7 50-25 94-2 200-50 25-103 50-159 75 8 44 10 84 14 122-35-27-62-57-96-92-97 63-226 80-310 30-64-38-112-90-152-130z"/>
    <path d="M350 362c26-44 52-73 74-92 20 36 54 72 81 105"/>
    <path d="M372 680c20 38 49 69 73 90 23-33 51-72 75-110"/>
    <path d="M592 420c25 34 42 63 50 85-15 41-31 79-50 115"/>
    <path d="M245 505c22-35 56-34 57 0-16 37-43 34-57 0z"/>
    <path d="M235 520c85 106 272 123 369 0"/>
    <path d="M290 465c93-70 220-33 314 55"/>
    <path d="M675 440c44 37 85 65 160 75"/>
  </g>
</svg>
