<svg xmlns="http://www.w3.org/2000/svg" viewBox="0 0 1000 1000">
  <rect width="1000" height="1000" fill="#fffdf7"/>
  <g fill="none" stroke="#273451" stroke-width="24" stroke-linecap="round" stroke-linejoin="round">
    <path d="M300 650c-54-122-48-211-8-260-18-103-20-190-14-225 8-44 57-72 94-3 16 31 22 88 32 158h42c15-67 35-132 42-160 18-65 84-72 104 10 12 49-1 131-40 218 55 57 81 158 58 247-18 70-75 121-118 137-76 27-141 13-162-27-13-24-23-55-30-95z"/>
    <path d="M342 410c-24-100-42-175-12-246m182 234c18-88 35-178 48-236"/>
    <path d="M330 745c-6 40-20 95 8 165 22-5 40-24 52-52"/>
    <path d="M492 772c28 35 58 90 118 60 3 27-7 51-18 68-28-2-46-17-57-42"/>
    <path d="M610 635c48 8 92 8 110 27 26 27 49 44 50 63-17 22-42 40-66 49-30-23-54-38-84-50"/>
    <path d="M356 520c26-24 45-23 64 0m62 0c25-24 45-23 64 0"/>
    <path d="M420 604c27 22 45 22 72 0m-36 22v30"/>
    <path d="M370 675c48 37 124 40 172-3"/>
  </g>
</svg>
